<!-- public/icons.svg -->
<svg xmlns="http://www.w3.org/2000/svg">
  <symbol id="icon-home" viewBox="0 0 24 24">
    <path d="M10 20v-6h4v6h5v-8h3L12 3 2 12h3v8z"/>
  </symbol>
  <symbol id="icon-user" viewBox="0 0 24 24">
    <path d="M12 12c2.21 0 4-1.79 4-4s-1.79-4-4-4-4 1.79-4 4 1.79 4 4 4zm0 2c-2.67 0-8 1.34-8 4v2h16v-2c0-2.66-5.33-4-8-4z"/>
  </symbol>
  <symbol id="icon-settings" viewBox="0 0 24 24">
    <path d="M19.14,12.94a7.14,7.14,0,0,0,0-1.88l2.11-1.65a.5.5,0,0,0,.12-.61l-2-3.46a.5.5,0,0,0-.6-.22l-2.49,1a7.16,7.16,0,0,0-1.6-.93l-.38-2.65A.5.5,0,0,0,13.5,3h-4a.5.5,0,0,0-.5.42l-.38,2.65a7.16,7.16,0,0,0-1.6.93l-2.49-1a.5.5,0,0,0-.6.22l-2,3.46a.5.5,0,0,0,.12.61l2.11,1.65a7.14,7.14,0,0,0,0,1.88L2.73,14.59a.5.5,0,0,0-.12.61l2,3.46a.5.5,0,0,0,.6.22l2.49-1a7.16,7.16,0,0,0,1.6.93l.38,2.65a.5.5,0,0,0,.5.42h4a.5.5,0,0,0,.5-.42l.38-2.65a7.16,7.16,0,0,0,1.6-.93l2.49,1a.5.5,0,0,0,.6-.22l2-3.46a.5.5,0,0,0-.12-.61ZM12,15.5A3.5,3.5,0,1,1,15.5,12,3.5,3.5,0,0,1,12,15.5Z"/>
  </symbol>
</svg>